# xmcd
#
# Track frame offsets: 
#        150
#        19315
#        33373
#        49834
#        65226
#        84144
#        100551
#        122162
#
# Disc length: 1810 seconds
#
# Revision: 0
# Processed by: cddbd v1.5.2PL0 Copyright (c) Steve Scherf et al.
# Submitted via: ExactAudioCopy v1.3
#
DISCID=61071008
DTITLE=Langhorne Slim and The Law - Live at Grimey's
DYEAR=2016
DGENRE=Blues
TTITLE0=Airplane
TTITLE1=Spirit Moves
TTITLE2=Changes
TTITLE3=Put It Together
TTITLE4=Wolves
TTITLE5=Bring You My Love
TTITLE6=Life's a Bell
TTITLE7=Strangers
EXTD=
EXTT0=
EXTT1=
EXTT2=
EXTT3=
EXTT4=
EXTT5=
EXTT6=
EXTT7=
PLAYORDER=
